<svg id="Layer_1" data-name="Layer 1" xmlns="http://www.w3.org/2000/svg" xmlns:xlink="http://www.w3.org/1999/xlink" viewBox="0 0 48 48"><defs><style>.cls-1{fill:none;}.cls-2{fill:url(#linear-gradient);}.cls-3{fill:#fff;}</style><linearGradient id="linear-gradient" x1="24" y1="6.04" x2="24" y2="38.04" gradientUnits="userSpaceOnUse"><stop offset="0" stop-color="#54a8fc"/><stop offset="1" stop-color="#305fde"/></linearGradient></defs><path class="cls-1" d="M0,0H48V48H0Z"/><path class="cls-2" d="M36,32V22c0-6.14-3.28-11.28-9-12.64V8a3,3,0,0,0-6,0V9.36c-5.74,1.36-9,6.48-9,12.64V32L8,36v2H40V36ZM24,44a4,4,0,0,0,4-4H20A4,4,0,0,0,24,44Z"/><path class="cls-3" d="M20.88,38V25H18.66V21.8h2.22v-.65A7.87,7.87,0,0,1,23,15.37a6.58,6.58,0,0,1,4.46-1.6,7.06,7.06,0,0,1,2.45.41v3.27A5.33,5.33,0,0,0,28,17.14c-2.16,0-2.89,1.75-2.89,3.82v.84h3.76V25H25.16V38Z"/></svg>